<svg
   xmlns:svg="http://www.w3.org/2000/svg"
   xmlns="http://www.w3.org/2000/svg"
   viewBox="0 0 188.29703 52.916665"
>
  <path
     style="fill: currentColor; stroke: none;"
     d="M 25.684226,-1.8764649e-6 C 23.073308,-1.8764649e-6 20.52301,0.21265112 18.033528,0.63768612 15.544048,1.0627181 13.176172,1.6699311 10.929568,2.4592791 8.7436821,3.1879071 6.7401346,4.0984701 4.9185642,5.1914141 3.1577118,6.2236351 1.6696504,7.3776001 0.45526911,8.6527011 L 11.384838,21.49481 c 0.971504,-1.153661 1.912815,-2.125203 2.8236,-2.914551 0.971506,-0.850066 1.912816,-1.548491 2.823601,-2.094962 0.910786,-0.546471 1.821348,-0.941031 2.732134,-1.183908 0.971504,-0.242877 1.943046,-0.364318 2.914551,-0.364318 1.153663,0 2.125204,0.181906 2.914551,0.546219 0.789348,0.303596 1.396562,0.789366 1.821595,1.457276 0.485754,0.60719 0.728638,1.427057 0.728638,2.459282 0,0.54647 -0.151675,1.062473 -0.455268,1.548225 -0.242877,0.425034 -0.850091,0.971784 -1.821596,1.639694 -0.910786,0.60719 -2.337867,1.457289 -4.280877,2.550232 -1.943009,1.092942 -4.55377,2.519506 -7.832599,4.280358 -2.550199,1.335819 -4.7059368,2.7629 -6.4667893,4.280876 C 5.5862453,35.217209 4.189912,36.887175 3.0969697,38.708746 2.0040265,40.530317 1.2143903,42.594326 0.72863817,44.90165 0.24288606,47.208973 0,49.880712 0,52.916664 H 47.998632 V 37.433372 H 25.593275 c 1.032223,-0.546472 2.064228,-1.062473 3.096452,-1.548226 1.032225,-0.546471 2.064745,-1.062473 3.096971,-1.548226 1.032224,-0.485752 2.033997,-0.971523 3.005502,-1.457275 1.032223,-0.546472 2.003765,-1.062991 2.914551,-1.548743 1.275101,-0.850067 2.458779,-1.760628 3.551722,-2.732133 1.15366,-0.971505 2.155952,-2.034258 3.00602,-3.187919 0.850066,-1.153662 1.517742,-2.458783 2.003493,-3.91604 0.485754,-1.517976 0.728639,-3.218174 0.728639,-5.100464 0,-3.460983 -0.819867,-6.4058409 -2.459281,-8.8346019 C 42.897929,5.1309831 40.499823,3.2791111 37.342433,2.0040101 34.185042,0.66819212 30.298873,-1.8764649e-6 25.684226,-1.8764649e-6 Z m 49.626956,0 c -6.008851,0 -11.113546,1.2277509764649 -15.313281,3.6829789764649 -4.135124,2.45523 -7.300829,5.71804 -9.497612,9.7885509 -2.132174,4.005899 -3.198255,8.334791 -3.198255,12.986803 0,3.48901 0.613616,6.816384 1.841231,9.982337 1.227614,3.165953 3.03696,6.008838 5.427576,8.528678 2.39062,2.455229 5.298068,4.3937 8.722468,5.815149 3.489011,1.421448 7.495082,2.132169 12.017873,2.132169 4.135131,0 7.785322,-0.581593 10.951273,-1.744596 3.23056,-1.227615 6.008891,-2.874773 8.334892,-4.942334 2.39062,-2.067561 4.264531,-4.458498 5.621363,-7.172172 L 82.289054,33.630503 c -0.51689,0.775336 -1.163041,1.453516 -1.938381,2.035018 -0.71072,0.581501 -1.48601,1.033967 -2.32596,1.357023 -0.83995,0.258445 -1.776901,0.387573 -2.810681,0.387573 -1.6799,0 -3.197921,-0.419924 -4.554761,-1.259871 -1.356839,-0.904558 -2.455461,-2.164849 -3.29541,-3.780131 -0.775335,-1.679893 -1.163236,-3.650388 -1.163236,-5.911784 0,-2.326006 0.387901,-4.296501 1.163236,-5.911783 0.839949,-1.615282 1.938571,-2.843033 3.29541,-3.68298 1.35684,-0.904557 2.874861,-1.356505 4.554761,-1.356505 1.48606,0 2.810921,0.32282 3.973921,0.968932 1.22761,0.646113 2.261151,1.583067 3.101101,2.810681 L 100.21871,13.8591 C 98.151148,9.7885891 95.017467,6.4612151 90.817736,3.8767651 86.617995,1.2923131 81.449254,-1.8764649e-6 75.311182,-1.8764649e-6 Z m 50.244488,0 L 101.52303,30.628103 v 12.888102 h 19.48356 v 9.400459 h 14.4043 v -9.400459 h 6.67143 V 30.628103 h -6.67143 V -1.8764649e-6 Z m 42.23257,0 c -4.57901,0 -8.51322,0.7739849964649 -11.80238,2.3218219764649 -3.22466,1.547836 -5.70733,3.675911 -7.44864,6.384623 -1.74131,2.6442189 -2.61224,5.7080229 -2.61224,9.1906539 0,2.966685 0.6449,5.352927 1.93476,7.158736 1.35436,1.741316 3.35387,3.224487 5.99809,4.449857 2.7087,1.225371 6.0623,2.547317 10.06088,3.966166 1.54783,0.451453 2.8055,0.870846 3.7729,1.257805 1.03189,0.386959 1.77374,0.773693 2.22518,1.160652 0.45146,0.386959 0.67697,0.871153 0.67697,1.451592 0,0.838411 -0.32246,1.450655 -0.96739,1.837613 -0.64492,0.322466 -1.64442,0.483692 -2.99878,0.483692 -2.38625,0 -5.0628,-0.580103 -8.02948,-1.740979 -2.9022,-1.160877 -5.93335,-2.773133 -9.09351,-4.836914 l -6.28799,11.318172 c 2.96669,2.773206 6.57793,4.901797 10.83449,6.38514 4.32104,1.418849 8.70679,2.128035 13.15682,2.128035 6.51381,0 11.64089,-1.515314 15.38149,-4.546492 3.8051,-3.031179 5.70767,-7.223561 5.70767,-12.576493 0,-3.031179 -0.67704,-5.481704 -2.0314,-7.352006 -1.28986,-1.870302 -3.32151,-3.450416 -6.09472,-4.740279 -2.77321,-1.354357 -6.35231,-2.676303 -10.73786,-3.966166 -1.48334,-0.451453 -2.70886,-0.838704 -3.67626,-1.16117 -0.96739,-0.386958 -1.6771,-0.773693 -2.12855,-1.160653 -0.45145,-0.451451 -0.67696,-0.99993 -0.67696,-1.64486 0,-0.644932 0.16122,-1.160751 0.48369,-1.547709 0.32247,-0.386959 0.774,-0.67727 1.35444,-0.870749 0.64493,-0.193479 1.38677,-0.289904 2.22519,-0.289904 1.74131,0 3.70815,0.418875 5.90094,1.257287 2.25726,0.838411 4.9981,2.2573 8.22275,4.256588 l 6.96547,-11.2215379 c -3.22466,-2.773204 -6.57825,-4.67577 -10.06089,-5.707661 C 174.62479,0.54847612 171.20639,-1.8764649e-6 167.78824,-1.8764649e-6 Z M 122.67471,21.530467 v 9.097636 h -6.97477 z"
     />
</svg>
